# xmcd CD database file generated by Grip 2.95
# 
# Track frame offsets:
#       150
#       18832
#       45037
#       69945
#       88197
#       104287
#       116275
#       135082
#       157542
#       179277
#       193397
#       210934
#       237259
# 
# Disc length: 3456 seconds
# 
# Revision: 3
# Processed by: cddbd v1.4b41PL1 Copyright (c) Steve Scherf et al.
# Submitted via: Grip 2.95
# 
DISCID=8f0d7e0d
DTITLE=Eva Cassidy - Live at Blues Alley
DYEAR=1900
DGENRE=
TTITLE0=Cheek to Cheek
TTITLE1=Stormy Monday
TTITLE2=Bridge over Troubled Waters
TTITLE3=Fine and Mellow
TTITLE4=People Get Ready
TTITLE5=Blue Skies
TTITLE6=Tall Trees In Georgia
TTITLE7=Fields of Gold
TTITLE8=Autumn Leaves
TTITLE9=Honeysuckle Rose
TTITLE10=Take Me to the River
TTITLE11=What a Wonderful World
TTITLE12=Oh, Had I a Golden Thread
EXTD=
EXTT0=
EXTT1=
EXTT2=
EXTT3=
EXTT4=
EXTT5=
EXTT6=
EXTT7=
EXTT8=
EXTT9=
EXTT10=
EXTT11=
EXTT12=
PLAYORDER=
